  0
SECTION
  2
HEADER
  9
$ACADVER
  1
AC1014
  9
$HANDSEED
  5
FFFF
  9
$INSUNITS
 70
     0
  9
$MEASUREMENT
 70
     1
  0
ENDSEC
  0
SECTION
  2
TABLES
  0
TABLE
  2
VPORT
  5
8
330
0
100
AcDbSymbolTable
 70
     4
  0
VPORT
  5
2E
330
8
100
AcDbSymbolTableRecord
100
AcDbViewportTableRecord
  2
*ACTIVE
 70
     0
 10
0.0
 20
0.0
 11
1.0
 21
1.0
 12
210.0
 22
148.5
 13
0.0
 23
0.0
 14
10.0
 24
10.0
 15
10.0
 25
10.0
 16
0.0
 26
0.0
 36
1.0
 17
0.0
 27
0.0
 37
0.0
 40
341.0
 41
1.24
 42
50.0
 43
0.0
 44
0.0
 50
0.0
 51
0.0
 71
     0
 72
   100
 73
     1
 74
     3
 75
     0
 76
     0
 77
     0
 78
     0
  0
ENDTAB
  0
TABLE
  2
LTYPE
  5
5
330
0
100
AcDbSymbolTable
 70
     1
  0
LTYPE
  5
14
330
5
100
AcDbSymbolTableRecord
100
AcDbLinetypeTableRecord
  2
BYBLOCK
 70
     0
  3

 72
    65
 73
     0
 40
0.0
  0
LTYPE
  5
15
330
5
100
AcDbSymbolTableRecord
100
AcDbLinetypeTableRecord
  2
BYLAYER
 70
     0
  3

 72
    65
 73
     0
 40
0.0
  0
LTYPE
  5
16
330
5
100
AcDbSymbolTableRecord
100
AcDbLinetypeTableRecord
  2
CONTINUOUS
 70
     0
  3
Solid line
 72
    65
 73
     0
 40
0.0
  0
ENDTAB
  0
TABLE
  2
LAYER
  5
2
100
AcDbSymbolTable
 70
1
  0
LAYER
  5
50
100
AcDbSymbolTableRecord
100
AcDbLayerTableRecord
  2
0
 70
0
  6
CONTINUOUS
  0
ENDTAB
  0
TABLE
  2
STYLE
  5
3
330
0
100
AcDbSymbolTable
 70
     1
  0
STYLE
  5
11
330
3
100
AcDbSymbolTableRecord
100
AcDbTextStyleTableRecord
  2
STANDARD
 70
     0
 40
0.0
 41
1.0
 50
0.0
 71
     0
 42
2.5
  3
txt
  4

  0
ENDTAB
  0
TABLE
  2
VIEW
  5
6
330
0
100
AcDbSymbolTable
 70
     0
  0
ENDTAB
  0
TABLE
  2
UCS
  5
7
330
0
100
AcDbSymbolTable
 70
     0
  0
ENDTAB
  0
TABLE
  2
APPID
  5
9
330
0
100
AcDbSymbolTable
 70
     2
  0
APPID
  5
12
330
9
100
AcDbSymbolTableRecord
100
AcDbRegAppTableRecord
  2
ACAD
 70
     0
  0
ENDTAB
  0
TABLE
  2
DIMSTYLE
  5
A
330
0
100
AcDbSymbolTable
 70
     1
  0
DIMSTYLE
105
27
330
A
100
AcDbSymbolTableRecord
100
AcDbDimStyleTableRecord
  2
ISO-25
 70
     0
  3

  4

  5

  6

  7

 40
1.0
 41
2.5
 42
0.625
 43
3.75
 44
1.25
 45
0.0
 46
0.0
 47
0.0
 48
0.0
140
2.5
141
2.5
142
0.0
143
0.03937007874016
144
1.0
145
0.0
146
1.0
147
0.625
 71
     0
 72
     0
 73
     0
 74
     0
 75
     0
 76
     0
 77
     1
 78
     8
170
     0
171
     3
172
     1
173
     0
174
     0
175
     0
176
     0
177
     0
178
     0
270
     2
271
     2
272
     2
273
     2
274
     3
340
11
275
     0
280
     0
281
     0
282
     0
283
     0
284
     8
285
     0
286
     0
287
     3
288
     0
  0
ENDTAB
  0
TABLE
  2
BLOCK_RECORD
  5
1
330
0
100
AcDbSymbolTable
 70
     1
  0
BLOCK_RECORD
  5
1F
330
1
100
AcDbSymbolTableRecord
100
AcDbBlockTableRecord
  2
*MODEL_SPACE
  0
BLOCK_RECORD
  5
1B
330
1
100
AcDbSymbolTableRecord
100
AcDbBlockTableRecord
  2
*PAPER_SPACE
  0
ENDTAB
  0
ENDSEC
  0
SECTION
  2
BLOCKS
  0
BLOCK
  5
20
330
1F
100
AcDbEntity
  8
0
100
AcDbBlockBegin
  2
*MODEL_SPACE
 70
     0
 10
0.0
 20
0.0
 30
0.0
  3
*MODEL_SPACE
  1

  0
ENDBLK
  5
21
330
1F
100
AcDbEntity
  8
0
100
AcDbBlockEnd
  0
BLOCK
  5
1C
330
1B
100
AcDbEntity
 67
     1
  8
0
100
AcDbBlockBegin
  2
*PAPER_SPACE
  1

  0
ENDBLK
  5
1D
330
1B
100
AcDbEntity
 67
     1
  8
0
100
AcDbBlockEnd
  0
ENDSEC
  0
SECTION
  2
ENTITIES
  0
SPLINE
  5
100
100
AcDbEntity
  8
0
 62
7
100
AcDbSpline
 70
8
 71
3
 72
8
 73
4
 74
0
 40
0
 40
0
 40
0
 40
0
 40
1
 40
1
 40
1
 40
1
 10
411.000000
 20
286.000000
 30
0.0
 10
411.000000
 20
200.395864
 30
0.0
 10
341.604136
 20
131.000000
 30
0.0
 10
256.000000
 20
131.000000
 30
0.0
  0
SPLINE
  5
101
100
AcDbEntity
  8
0
 62
7
100
AcDbSpline
 70
8
 71
3
 72
8
 73
4
 74
0
 40
0
 40
0
 40
0
 40
0
 40
1
 40
1
 40
1
 40
1
 10
256.000000
 20
131.000000
 30
0.0
 10
214.891444
 20
131.000000
 30
0.0
 10
175.466588
 20
147.330310
 30
0.0
 10
146.398449
 20
176.398449
 30
0.0
  0
SPLINE
  5
102
100
AcDbEntity
  8
0
 62
7
100
AcDbSpline
 70
8
 71
3
 72
8
 73
4
 74
0
 40
0
 40
0
 40
0
 40
0
 40
1
 40
1
 40
1
 40
1
 10
146.398449
 20
176.398449
 30
0.0
 10
117.330310
 20
205.466588
 30
0.0
 10
101.000000
 20
244.891444
 30
0.0
 10
101.000000
 20
286.000000
 30
0.0
  0
SPLINE
  5
103
100
AcDbEntity
  8
0
 62
7
100
AcDbSpline
 70
8
 71
3
 72
8
 73
4
 74
0
 40
0
 40
0
 40
0
 40
0
 40
1
 40
1
 40
1
 40
1
 10
101.000000
 20
286.000000
 30
0.0
 10
101.000000
 20
327.108556
 30
0.0
 10
117.330310
 20
366.533412
 30
0.0
 10
146.398449
 20
395.601551
 30
0.0
  0
SPLINE
  5
104
100
AcDbEntity
  8
0
 62
7
100
AcDbSpline
 70
8
 71
3
 72
8
 73
4
 74
0
 40
0
 40
0
 40
0
 40
0
 40
1
 40
1
 40
1
 40
1
 10
146.398449
 20
395.601551
 30
0.0
 10
175.466588
 20
424.669690
 30
0.0
 10
214.891444
 20
441.000000
 30
0.0
 10
256.000000
 20
441.000000
 30
0.0
  0
SPLINE
  5
105
100
AcDbEntity
  8
0
 62
7
100
AcDbSpline
 70
8
 71
3
 72
8
 73
4
 74
0
 40
0
 40
0
 40
0
 40
0
 40
1
 40
1
 40
1
 40
1
 10
256.000000
 20
441.000000
 30
0.0
 10
341.604136
 20
441.000000
 30
0.0
 10
411.000000
 20
371.604136
 30
0.0
 10
411.000000
 20
286.000000
 30
0.0
  0
SPLINE
  5
106
100
AcDbEntity
  8
0
 62
7
100
AcDbSpline
 70
8
 71
3
 72
8
 73
4
 74
0
 40
0
 40
0
 40
0
 40
0
 40
1
 40
1
 40
1
 40
1
 10
388.000000
 20
286.000000
 30
0.0
 10
388.000000
 20
250.991423
 30
0.0
 10
374.092897
 20
217.416707
 30
0.0
 10
349.338095
 20
192.661905
 30
0.0
  0
SPLINE
  5
107
100
AcDbEntity
  8
0
 62
7
100
AcDbSpline
 70
8
 71
3
 72
8
 73
4
 74
0
 40
0
 40
0
 40
0
 40
0
 40
1
 40
1
 40
1
 40
1
 10
349.338095
 20
192.661905
 30
0.0
 10
324.583293
 20
167.907103
 30
0.0
 10
291.008577
 20
154.000000
 30
0.0
 10
256.000000
 20
154.000000
 30
0.0
  0
SPLINE
  5
108
100
AcDbEntity
  8
0
 62
7
100
AcDbSpline
 70
8
 71
3
 72
8
 73
4
 74
0
 40
0
 40
0
 40
0
 40
0
 40
1
 40
1
 40
1
 40
1
 10
256.000000
 20
154.000000
 30
0.0
 10
220.991423
 20
154.000000
 30
0.0
 10
187.416707
 20
167.907103
 30
0.0
 10
162.661905
 20
192.661905
 30
0.0
  0
SPLINE
  5
109
100
AcDbEntity
  8
0
 62
7
100
AcDbSpline
 70
8
 71
3
 72
8
 73
4
 74
0
 40
0
 40
0
 40
0
 40
0
 40
1
 40
1
 40
1
 40
1
 10
162.661905
 20
192.661905
 30
0.0
 10
137.907103
 20
217.416707
 30
0.0
 10
124.000000
 20
250.991423
 30
0.0
 10
124.000000
 20
286.000000
 30
0.0
  0
SPLINE
  5
10a
100
AcDbEntity
  8
0
 62
7
100
AcDbSpline
 70
8
 71
3
 72
8
 73
4
 74
0
 40
0
 40
0
 40
0
 40
0
 40
1
 40
1
 40
1
 40
1
 10
124.000000
 20
286.000000
 30
0.0
 10
124.000000
 20
321.008577
 30
0.0
 10
137.907103
 20
354.583293
 30
0.0
 10
162.661905
 20
379.338095
 30
0.0
  0
SPLINE
  5
10b
100
AcDbEntity
  8
0
 62
7
100
AcDbSpline
 70
8
 71
3
 72
8
 73
4
 74
0
 40
0
 40
0
 40
0
 40
0
 40
1
 40
1
 40
1
 40
1
 10
162.661905
 20
379.338095
 30
0.0
 10
187.416707
 20
404.092897
 30
0.0
 10
220.991423
 20
418.000000
 30
0.0
 10
256.000000
 20
418.000000
 30
0.0
  0
SPLINE
  5
10c
100
AcDbEntity
  8
0
 62
7
100
AcDbSpline
 70
8
 71
3
 72
8
 73
4
 74
0
 40
0
 40
0
 40
0
 40
0
 40
1
 40
1
 40
1
 40
1
 10
256.000000
 20
418.000000
 30
0.0
 10
291.008577
 20
418.000000
 30
0.0
 10
324.583293
 20
404.092897
 30
0.0
 10
349.338095
 20
379.338095
 30
0.0
  0
SPLINE
  5
10d
100
AcDbEntity
  8
0
 62
7
100
AcDbSpline
 70
8
 71
3
 72
8
 73
4
 74
0
 40
0
 40
0
 40
0
 40
0
 40
1
 40
1
 40
1
 40
1
 10
349.338095
 20
379.338095
 30
0.0
 10
374.092897
 20
354.583293
 30
0.0
 10
388.000000
 20
321.008577
 30
0.0
 10
388.000000
 20
286.000000
 30
0.0
  0
LWPOLYLINE
  5
10e
100
AcDbEntity
  8
0
 62
7
100
AcDbPolyline
 90
1
 70
1
 10
411.000000
 20
286.000000
 30
0.0
  0
SPLINE
  5
10f
100
AcDbEntity
  8
0
 62
7
100
AcDbSpline
 70
8
 71
3
 72
8
 73
4
 74
0
 40
0
 40
0
 40
0
 40
0
 40
1
 40
1
 40
1
 40
1
 10
150.000000
 20
263.000000
 30
0.0
 10
147.613052
 20
263.000000
 30
0.0
 10
145.323866
 20
262.051788
 30
0.0
 10
143.636039
 20
260.363961
 30
0.0
  0
SPLINE
  5
110
100
AcDbEntity
  8
0
 62
7
100
AcDbSpline
 70
8
 71
3
 72
8
 73
4
 74
0
 40
0
 40
0
 40
0
 40
0
 40
1
 40
1
 40
1
 40
1
 10
143.636039
 20
260.363961
 30
0.0
 10
141.948212
 20
258.676134
 30
0.0
 10
141.000000
 20
256.386948
 30
0.0
 10
141.000000
 20
254.000000
 30
0.0
  0
SPLINE
  5
111
100
AcDbEntity
  8
0
 62
7
100
AcDbSpline
 70
8
 71
3
 72
8
 73
4
 74
0
 40
0
 40
0
 40
0
 40
0
 40
1
 40
1
 40
1
 40
1
 10
141.000000
 20
254.000000
 30
0.0
 10
141.000000
 20
251.613052
 30
0.0
 10
141.948212
 20
249.323866
 30
0.0
 10
143.636039
 20
247.636039
 30
0.0
  0
SPLINE
  5
112
100
AcDbEntity
  8
0
 62
7
100
AcDbSpline
 70
8
 71
3
 72
8
 73
4
 74
0
 40
0
 40
0
 40
0
 40
0
 40
1
 40
1
 40
1
 40
1
 10
143.636039
 20
247.636039
 30
0.0
 10
145.323866
 20
245.948212
 30
0.0
 10
147.613052
 20
245.000000
 30
0.0
 10
150.000000
 20
245.000000
 30
0.0
  0
LWPOLYLINE
  5
113
100
AcDbEntity
  8
0
 62
7
100
AcDbPolyline
 90
1
 70
1
 10
388.000000
 20
286.000000
 30
0.0
  0
SPLINE
  5
114
100
AcDbEntity
  8
0
 62
7
100
AcDbSpline
 70
8
 71
3
 72
8
 73
4
 74
0
 40
0
 40
0
 40
0
 40
0
 40
1
 40
1
 40
1
 40
1
 10
362.000000
 20
245.000000
 30
0.0
 10
364.386948
 20
245.000000
 30
0.0
 10
366.676134
 20
245.948212
 30
0.0
 10
368.363961
 20
247.636039
 30
0.0
  0
SPLINE
  5
115
100
AcDbEntity
  8
0
 62
7
100
AcDbSpline
 70
8
 71
3
 72
8
 73
4
 74
0
 40
0
 40
0
 40
0
 40
0
 40
1
 40
1
 40
1
 40
1
 10
368.363961
 20
247.636039
 30
0.0
 10
370.051788
 20
249.323866
 30
0.0
 10
371.000000
 20
251.613052
 30
0.0
 10
371.000000
 20
254.000000
 30
0.0
  0
SPLINE
  5
116
100
AcDbEntity
  8
0
 62
7
100
AcDbSpline
 70
8
 71
3
 72
8
 73
4
 74
0
 40
0
 40
0
 40
0
 40
0
 40
1
 40
1
 40
1
 40
1
 10
371.000000
 20
254.000000
 30
0.0
 10
371.000000
 20
256.386948
 30
0.0
 10
370.051788
 20
258.676134
 30
0.0
 10
368.363961
 20
260.363961
 30
0.0
  0
SPLINE
  5
117
100
AcDbEntity
  8
0
 62
7
100
AcDbSpline
 70
8
 71
3
 72
8
 73
4
 74
0
 40
0
 40
0
 40
0
 40
0
 40
1
 40
1
 40
1
 40
1
 10
368.363961
 20
260.363961
 30
0.0
 10
366.676134
 20
262.051788
 30
0.0
 10
364.386948
 20
263.000000
 30
0.0
 10
362.000000
 20
263.000000
 30
0.0
  0
LWPOLYLINE
  5
118
100
AcDbEntity
  8
0
 62
7
100
AcDbPolyline
 90
2
 70
0
 10
150.000000
 20
245.000000
 30
0.0
 10
362.000000
 20
245.000000
 30
0.0
  0
SPLINE
  5
119
100
AcDbEntity
  8
0
 62
7
100
AcDbSpline
 70
8
 71
3
 72
8
 73
4
 74
0
 40
0
 40
0
 40
0
 40
0
 40
1
 40
1
 40
1
 40
1
 10
289.576170
 20
368.990230
 30
0.0
 10
287.045263
 20
368.870801
 30
0.0
 10
284.681904
 20
367.690185
 30
0.0
 10
283.066410
 20
365.738280
 30
0.0
  0
LWPOLYLINE
  5
11a
100
AcDbEntity
  8
0
 62
7
100
AcDbPolyline
 90
2
 70
0
 10
362.000000
 20
263.000000
 30
0.0
 10
150.000000
 20
263.000000
 30
0.0
  0
SPLINE
  5
11b
100
AcDbEntity
  8
0
 62
7
100
AcDbSpline
 70
8
 71
3
 72
8
 73
4
 74
0
 40
0
 40
0
 40
0
 40
0
 40
1
 40
1
 40
1
 40
1
 10
210.363280
 20
346.363280
 30
0.0
 10
206.848511
 20
349.876594
 30
0.0
 10
201.151489
 20
349.876594
 30
0.0
 10
197.636720
 20
346.363280
 30
0.0
  0
LWPOLYLINE
  5
11c
100
AcDbEntity
  8
0
 62
7
100
AcDbPolyline
 90
3
 70
0
 10
283.066410
 20
365.738280
 30
0.0
 10
241.371090
 20
315.355470
 30
0.0
 10
210.363280
 20
346.363280
 30
0.0
  0
SPLINE
  5
11d
100
AcDbEntity
  8
0
 62
7
100
AcDbSpline
 70
8
 71
3
 72
8
 73
4
 74
0
 40
0
 40
0
 40
0
 40
0
 40
1
 40
1
 40
1
 40
1
 10
155.636720
 20
304.363280
 30
0.0
 10
152.122909
 20
300.848717
 30
0.0
 10
152.122909
 20
295.151283
 30
0.0
 10
155.636720
 20
291.636720
 30
0.0
  0
SPLINE
  5
11e
100
AcDbEntity
  8
0
 62
7
100
AcDbSpline
 70
8
 71
3
 72
8
 73
4
 74
0
 40
0
 40
0
 40
0
 40
0
 40
1
 40
1
 40
1
 40
1
 10
155.636720
 20
291.636720
 30
0.0
 10
159.151283
 20
288.122909
 30
0.0
 10
164.848717
 20
288.122909
 30
0.0
 10
168.363280
 20
291.636720
 30
0.0
  0
LWPOLYLINE
  5
11f
100
AcDbEntity
  8
0
 62
7
100
AcDbPolyline
 90
2
 70
0
 10
197.636720
 20
346.363280
 30
0.0
 10
155.636720
 20
304.363280
 30
0.0
  0
SPLINE
  5
120
100
AcDbEntity
  8
0
 62
7
100
AcDbSpline
 70
8
 71
3
 72
8
 73
4
 74
0
 40
0
 40
0
 40
0
 40
0
 40
1
 40
1
 40
1
 40
1
 10
235.636720
 20
295.636720
 30
0.0
 10
237.428508
 20
293.845306
 30
0.0
 10
239.892349
 20
292.892046
 30
0.0
 10
242.423261
 20
293.011008
 30
0.0
  0
SPLINE
  5
121
100
AcDbEntity
  8
0
 62
7
100
AcDbSpline
 70
8
 71
3
 72
8
 73
4
 74
0
 40
0
 40
0
 40
0
 40
0
 40
1
 40
1
 40
1
 40
1
 10
242.423261
 20
293.011008
 30
0.0
 10
244.954174
 20
293.129969
 30
0.0
 10
247.317736
 20
294.310134
 30
0.0
 10
248.933590
 20
296.261720
 30
0.0
  0
LWPOLYLINE
  5
122
100
AcDbEntity
  8
0
 62
7
100
AcDbPolyline
 90
3
 70
0
 10
168.363280
 20
291.636720
 30
0.0
 10
204.000000
 20
327.273440
 30
0.0
 10
235.636720
 20
295.636720
 30
0.0
  0
SPLINE
  5
123
100
AcDbEntity
  8
0
 62
7
100
AcDbSpline
 70
8
 71
3
 72
8
 73
4
 74
0
 40
0
 40
0
 40
0
 40
0
 40
1
 40
1
 40
1
 40
1
 10
337.636720
 20
299.636720
 30
0.0
 10
341.151283
 20
296.122909
 30
0.0
 10
346.848717
 20
296.122909
 30
0.0
 10
350.363280
 20
299.636720
 30
0.0
  0
SPLINE
  5
124
100
AcDbEntity
  8
0
 62
7
100
AcDbSpline
 70
8
 71
3
 72
8
 73
4
 74
0
 40
0
 40
0
 40
0
 40
0
 40
1
 40
1
 40
1
 40
1
 10
350.363280
 20
299.636720
 30
0.0
 10
353.877091
 20
303.151283
 30
0.0
 10
353.877091
 20
308.848717
 30
0.0
 10
350.363280
 20
312.363280
 30
0.0
  0
LWPOLYLINE
  5
125
100
AcDbEntity
  8
0
 62
7
100
AcDbPolyline
 90
3
 70
0
 10
248.933590
 20
296.261720
 30
0.0
 10
290.628910
 20
346.644530
 30
0.0
 10
337.636720
 20
299.636720
 30
0.0
  0
SPLINE
  5
126
100
AcDbEntity
  8
0
 62
7
100
AcDbSpline
 70
8
 71
3
 72
8
 73
4
 74
0
 40
0
 40
0
 40
0
 40
0
 40
1
 40
1
 40
1
 40
1
 10
296.363280
 20
366.363280
 30
0.0
 10
294.571569
 20
368.155297
 30
0.0
 10
292.107462
 20
369.109029
 30
0.0
 10
289.576170
 20
368.990230
 30
0.0
  0
LWPOLYLINE
  5
127
100
AcDbEntity
  8
0
 62
7
100
AcDbPolyline
 90
2
 70
0
 10
350.363280
 20
312.363280
 30
0.0
 10
296.363280
 20
366.363280
 30
0.0
  0
SPLINE
  5
128
100
AcDbEntity
  8
0
 62
7
100
AcDbSpline
 70
8
 71
3
 72
8
 73
4
 74
0
 40
0
 40
0
 40
0
 40
0
 40
1
 40
1
 40
1
 40
1
 10
206.000000
 20
201.000000
 30
0.0
 10
203.613052
 20
201.000000
 30
0.0
 10
201.323866
 20
200.051788
 30
0.0
 10
199.636039
 20
198.363961
 30
0.0
  0
SPLINE
  5
129
100
AcDbEntity
  8
0
 62
7
100
AcDbSpline
 70
8
 71
3
 72
8
 73
4
 74
0
 40
0
 40
0
 40
0
 40
0
 40
1
 40
1
 40
1
 40
1
 10
199.636039
 20
198.363961
 30
0.0
 10
197.948212
 20
196.676134
 30
0.0
 10
197.000000
 20
194.386948
 30
0.0
 10
197.000000
 20
192.000000
 30
0.0
  0
SPLINE
  5
12a
100
AcDbEntity
  8
0
 62
7
100
AcDbSpline
 70
8
 71
3
 72
8
 73
4
 74
0
 40
0
 40
0
 40
0
 40
0
 40
1
 40
1
 40
1
 40
1
 10
197.000000
 20
192.000000
 30
0.0
 10
197.000000
 20
189.613052
 30
0.0
 10
197.948212
 20
187.323866
 30
0.0
 10
199.636039
 20
185.636039
 30
0.0
  0
SPLINE
  5
12b
100
AcDbEntity
  8
0
 62
7
100
AcDbSpline
 70
8
 71
3
 72
8
 73
4
 74
0
 40
0
 40
0
 40
0
 40
0
 40
1
 40
1
 40
1
 40
1
 10
199.636039
 20
185.636039
 30
0.0
 10
201.323866
 20
183.948212
 30
0.0
 10
203.613052
 20
183.000000
 30
0.0
 10
206.000000
 20
183.000000
 30
0.0
  0
LWPOLYLINE
  5
12c
100
AcDbEntity
  8
0
 62
7
100
AcDbPolyline
 90
1
 70
1
 10
289.576170
 20
368.990230
 30
0.0
  0
SPLINE
  5
12d
100
AcDbEntity
  8
0
 62
7
100
AcDbSpline
 70
8
 71
3
 72
8
 73
4
 74
0
 40
0
 40
0
 40
0
 40
0
 40
1
 40
1
 40
1
 40
1
 10
306.000000
 20
183.000000
 30
0.0
 10
308.386948
 20
183.000000
 30
0.0
 10
310.676134
 20
183.948212
 30
0.0
 10
312.363961
 20
185.636039
 30
0.0
  0
SPLINE
  5
12e
100
AcDbEntity
  8
0
 62
7
100
AcDbSpline
 70
8
 71
3
 72
8
 73
4
 74
0
 40
0
 40
0
 40
0
 40
0
 40
1
 40
1
 40
1
 40
1
 10
312.363961
 20
185.636039
 30
0.0
 10
314.051788
 20
187.323866
 30
0.0
 10
315.000000
 20
189.613052
 30
0.0
 10
315.000000
 20
192.000000
 30
0.0
  0
SPLINE
  5
12f
100
AcDbEntity
  8
0
 62
7
100
AcDbSpline
 70
8
 71
3
 72
8
 73
4
 74
0
 40
0
 40
0
 40
0
 40
0
 40
1
 40
1
 40
1
 40
1
 10
315.000000
 20
192.000000
 30
0.0
 10
315.000000
 20
194.386948
 30
0.0
 10
314.051788
 20
196.676134
 30
0.0
 10
312.363961
 20
198.363961
 30
0.0
  0
SPLINE
  5
130
100
AcDbEntity
  8
0
 62
7
100
AcDbSpline
 70
8
 71
3
 72
8
 73
4
 74
0
 40
0
 40
0
 40
0
 40
0
 40
1
 40
1
 40
1
 40
1
 10
312.363961
 20
198.363961
 30
0.0
 10
310.676134
 20
200.051788
 30
0.0
 10
308.386948
 20
201.000000
 30
0.0
 10
306.000000
 20
201.000000
 30
0.0
  0
LWPOLYLINE
  5
131
100
AcDbEntity
  8
0
 62
7
100
AcDbPolyline
 90
2
 70
0
 10
206.000000
 20
183.000000
 30
0.0
 10
306.000000
 20
183.000000
 30
0.0
  0
SPLINE
  5
132
100
AcDbEntity
  8
0
 62
7
100
AcDbSpline
 70
8
 71
3
 72
8
 73
4
 74
0
 40
0
 40
0
 40
0
 40
0
 40
1
 40
1
 40
1
 40
1
 10
229.581500
 20
254.000000
 30
0.0
 10
229.581500
 20
249.226103
 30
0.0
 10
227.685077
 20
244.647733
 30
0.0
 10
224.309422
 20
241.272078
 30
0.0
  0
SPLINE
  5
133
100
AcDbEntity
  8
0
 62
7
100
AcDbSpline
 70
8
 71
3
 72
8
 73
4
 74
0
 40
0
 40
0
 40
0
 40
0
 40
1
 40
1
 40
1
 40
1
 10
224.309422
 20
241.272078
 30
0.0
 10
220.933767
 20
237.896423
 30
0.0
 10
216.355397
 20
236.000000
 30
0.0
 10
211.581500
 20
236.000000
 30
0.0
  0
SPLINE
  5
134
100
AcDbEntity
  8
0
 62
7
100
AcDbSpline
 70
8
 71
3
 72
8
 73
4
 74
0
 40
0
 40
0
 40
0
 40
0
 40
1
 40
1
 40
1
 40
1
 10
211.581500
 20
236.000000
 30
0.0
 10
206.807603
 20
236.000000
 30
0.0
 10
202.229233
 20
237.896423
 30
0.0
 10
198.853578
 20
241.272078
 30
0.0
  0
SPLINE
  5
135
100
AcDbEntity
  8
0
 62
7
100
AcDbSpline
 70
8
 71
3
 72
8
 73
4
 74
0
 40
0
 40
0
 40
0
 40
0
 40
1
 40
1
 40
1
 40
1
 10
198.853578
 20
241.272078
 30
0.0
 10
195.477923
 20
244.647733
 30
0.0
 10
193.581500
 20
249.226103
 30
0.0
 10
193.581500
 20
254.000000
 30
0.0
  0
SPLINE
  5
136
100
AcDbEntity
  8
0
 62
7
100
AcDbSpline
 70
8
 71
3
 72
8
 73
4
 74
0
 40
0
 40
0
 40
0
 40
0
 40
1
 40
1
 40
1
 40
1
 10
193.581500
 20
254.000000
 30
0.0
 10
193.581500
 20
258.773897
 30
0.0
 10
195.477923
 20
263.352267
 30
0.0
 10
198.853578
 20
266.727922
 30
0.0
  0
SPLINE
  5
137
100
AcDbEntity
  8
0
 62
7
100
AcDbSpline
 70
8
 71
3
 72
8
 73
4
 74
0
 40
0
 40
0
 40
0
 40
0
 40
1
 40
1
 40
1
 40
1
 10
198.853578
 20
266.727922
 30
0.0
 10
202.229233
 20
270.103577
 30
0.0
 10
206.807603
 20
272.000000
 30
0.0
 10
211.581500
 20
272.000000
 30
0.0
  0
SPLINE
  5
138
100
AcDbEntity
  8
0
 62
7
100
AcDbSpline
 70
8
 71
3
 72
8
 73
4
 74
0
 40
0
 40
0
 40
0
 40
0
 40
1
 40
1
 40
1
 40
1
 10
211.581500
 20
272.000000
 30
0.0
 10
216.355397
 20
272.000000
 30
0.0
 10
220.933767
 20
270.103577
 30
0.0
 10
224.309422
 20
266.727922
 30
0.0
  0
SPLINE
  5
139
100
AcDbEntity
  8
0
 62
7
100
AcDbSpline
 70
8
 71
3
 72
8
 73
4
 74
0
 40
0
 40
0
 40
0
 40
0
 40
1
 40
1
 40
1
 40
1
 10
224.309422
 20
266.727922
 30
0.0
 10
227.685077
 20
263.352267
 30
0.0
 10
229.581500
 20
258.773897
 30
0.0
 10
229.581500
 20
254.000000
 30
0.0
  0
LWPOLYLINE
  5
13a
100
AcDbEntity
  8
0
 62
7
100
AcDbPolyline
 90
2
 70
0
 10
306.000000
 20
201.000000
 30
0.0
 10
206.000000
 20
201.000000
 30
0.0
  0
SPLINE
  5
13b
100
AcDbEntity
  8
0
 62
7
100
AcDbSpline
 70
8
 71
3
 72
8
 73
4
 74
0
 40
0
 40
0
 40
0
 40
0
 40
1
 40
1
 40
1
 40
1
 10
211.581500
 20
281.000000
 30
0.0
 10
196.776410
 20
281.000000
 30
0.0
 10
184.581500
 20
268.805090
 30
0.0
 10
184.581500
 20
254.000000
 30
0.0
  0
SPLINE
  5
13c
100
AcDbEntity
  8
0
 62
7
100
AcDbSpline
 70
8
 71
3
 72
8
 73
4
 74
0
 40
0
 40
0
 40
0
 40
0
 40
1
 40
1
 40
1
 40
1
 10
184.581500
 20
254.000000
 30
0.0
 10
184.581500
 20
239.194910
 30
0.0
 10
196.776410
 20
227.000000
 30
0.0
 10
211.581500
 20
227.000000
 30
0.0
  0
SPLINE
  5
13d
100
AcDbEntity
  8
0
 62
7
100
AcDbSpline
 70
8
 71
3
 72
8
 73
4
 74
0
 40
0
 40
0
 40
0
 40
0
 40
1
 40
1
 40
1
 40
1
 10
211.581500
 20
227.000000
 30
0.0
 10
226.386590
 20
227.000000
 30
0.0
 10
238.581500
 20
239.194910
 30
0.0
 10
238.581500
 20
254.000000
 30
0.0
  0
SPLINE
  5
13e
100
AcDbEntity
  8
0
 62
7
100
AcDbSpline
 70
8
 71
3
 72
8
 73
4
 74
0
 40
0
 40
0
 40
0
 40
0
 40
1
 40
1
 40
1
 40
1
 10
238.581500
 20
254.000000
 30
0.0
 10
238.581500
 20
268.805090
 30
0.0
 10
226.386590
 20
281.000000
 30
0.0
 10
211.581500
 20
281.000000
 30
0.0
  0
LWPOLYLINE
  5
13f
100
AcDbEntity
  8
0
 62
7
100
AcDbPolyline
 90
1
 70
1
 10
229.581500
 20
254.000000
 30
0.0
  0
SPLINE
  5
140
100
AcDbEntity
  8
0
 62
7
100
AcDbSpline
 70
8
 71
3
 72
8
 73
4
 74
0
 40
0
 40
0
 40
0
 40
0
 40
1
 40
1
 40
1
 40
1
 10
211.581500
 20
263.000000
 30
0.0
 10
216.658660
 20
263.000000
 30
0.0
 10
220.581500
 20
259.077160
 30
0.0
 10
220.581500
 20
254.000000
 30
0.0
  0
SPLINE
  5
141
100
AcDbEntity
  8
0
 62
7
100
AcDbSpline
 70
8
 71
3
 72
8
 73
4
 74
0
 40
0
 40
0
 40
0
 40
0
 40
1
 40
1
 40
1
 40
1
 10
220.581500
 20
254.000000
 30
0.0
 10
220.581500
 20
248.922840
 30
0.0
 10
216.658660
 20
245.000000
 30
0.0
 10
211.581500
 20
245.000000
 30
0.0
  0
SPLINE
  5
142
100
AcDbEntity
  8
0
 62
7
100
AcDbSpline
 70
8
 71
3
 72
8
 73
4
 74
0
 40
0
 40
0
 40
0
 40
0
 40
1
 40
1
 40
1
 40
1
 10
211.581500
 20
245.000000
 30
0.0
 10
206.504340
 20
245.000000
 30
0.0
 10
202.581500
 20
248.922840
 30
0.0
 10
202.581500
 20
254.000000
 30
0.0
  0
SPLINE
  5
143
100
AcDbEntity
  8
0
 62
7
100
AcDbSpline
 70
8
 71
3
 72
8
 73
4
 74
0
 40
0
 40
0
 40
0
 40
0
 40
1
 40
1
 40
1
 40
1
 10
202.581500
 20
254.000000
 30
0.0
 10
202.581500
 20
259.077160
 30
0.0
 10
206.504340
 20
263.000000
 30
0.0
 10
211.581500
 20
263.000000
 30
0.0
  0
LWPOLYLINE
  5
144
100
AcDbEntity
  8
0
 62
7
100
AcDbPolyline
 90
1
 70
1
 10
211.581500
 20
281.000000
 30
0.0
  0
SPLINE
  5
145
100
AcDbEntity
  8
0
 62
7
100
AcDbSpline
 70
8
 71
3
 72
8
 73
4
 74
0
 40
0
 40
0
 40
0
 40
0
 40
1
 40
1
 40
1
 40
1
 10
310.412900
 20
254.000000
 30
0.0
 10
310.412900
 20
249.226103
 30
0.0
 10
308.516477
 20
244.647733
 30
0.0
 10
305.140822
 20
241.272078
 30
0.0
  0
SPLINE
  5
146
100
AcDbEntity
  8
0
 62
7
100
AcDbSpline
 70
8
 71
3
 72
8
 73
4
 74
0
 40
0
 40
0
 40
0
 40
0
 40
1
 40
1
 40
1
 40
1
 10
305.140822
 20
241.272078
 30
0.0
 10
301.765167
 20
237.896423
 30
0.0
 10
297.186797
 20
236.000000
 30
0.0
 10
292.412900
 20
236.000000
 30
0.0
  0
SPLINE
  5
147
100
AcDbEntity
  8
0
 62
7
100
AcDbSpline
 70
8
 71
3
 72
8
 73
4
 74
0
 40
0
 40
0
 40
0
 40
0
 40
1
 40
1
 40
1
 40
1
 10
292.412900
 20
236.000000
 30
0.0
 10
287.639003
 20
236.000000
 30
0.0
 10
283.060633
 20
237.896423
 30
0.0
 10
279.684978
 20
241.272078
 30
0.0
  0
SPLINE
  5
148
100
AcDbEntity
  8
0
 62
7
100
AcDbSpline
 70
8
 71
3
 72
8
 73
4
 74
0
 40
0
 40
0
 40
0
 40
0
 40
1
 40
1
 40
1
 40
1
 10
279.684978
 20
241.272078
 30
0.0
 10
276.309323
 20
244.647733
 30
0.0
 10
274.412900
 20
249.226103
 30
0.0
 10
274.412900
 20
254.000000
 30
0.0
  0
SPLINE
  5
149
100
AcDbEntity
  8
0
 62
7
100
AcDbSpline
 70
8
 71
3
 72
8
 73
4
 74
0
 40
0
 40
0
 40
0
 40
0
 40
1
 40
1
 40
1
 40
1
 10
274.412900
 20
254.000000
 30
0.0
 10
274.412900
 20
258.773897
 30
0.0
 10
276.309323
 20
263.352267
 30
0.0
 10
279.684978
 20
266.727922
 30
0.0
  0
SPLINE
  5
14a
100
AcDbEntity
  8
0
 62
7
100
AcDbSpline
 70
8
 71
3
 72
8
 73
4
 74
0
 40
0
 40
0
 40
0
 40
0
 40
1
 40
1
 40
1
 40
1
 10
279.684978
 20
266.727922
 30
0.0
 10
283.060633
 20
270.103577
 30
0.0
 10
287.639003
 20
272.000000
 30
0.0
 10
292.412900
 20
272.000000
 30
0.0
  0
SPLINE
  5
14b
100
AcDbEntity
  8
0
 62
7
100
AcDbSpline
 70
8
 71
3
 72
8
 73
4
 74
0
 40
0
 40
0
 40
0
 40
0
 40
1
 40
1
 40
1
 40
1
 10
292.412900
 20
272.000000
 30
0.0
 10
297.186797
 20
272.000000
 30
0.0
 10
301.765167
 20
270.103577
 30
0.0
 10
305.140822
 20
266.727922
 30
0.0
  0
SPLINE
  5
14c
100
AcDbEntity
  8
0
 62
7
100
AcDbSpline
 70
8
 71
3
 72
8
 73
4
 74
0
 40
0
 40
0
 40
0
 40
0
 40
1
 40
1
 40
1
 40
1
 10
305.140822
 20
266.727922
 30
0.0
 10
308.516477
 20
263.352267
 30
0.0
 10
310.412900
 20
258.773897
 30
0.0
 10
310.412900
 20
254.000000
 30
0.0
  0
LWPOLYLINE
  5
14d
100
AcDbEntity
  8
0
 62
7
100
AcDbPolyline
 90
1
 70
1
 10
211.581500
 20
263.000000
 30
0.0
  0
SPLINE
  5
14e
100
AcDbEntity
  8
0
 62
7
100
AcDbSpline
 70
8
 71
3
 72
8
 73
4
 74
0
 40
0
 40
0
 40
0
 40
0
 40
1
 40
1
 40
1
 40
1
 10
292.412900
 20
281.000000
 30
0.0
 10
277.607810
 20
281.000000
 30
0.0
 10
265.412900
 20
268.805090
 30
0.0
 10
265.412900
 20
254.000000
 30
0.0
  0
SPLINE
  5
14f
100
AcDbEntity
  8
0
 62
7
100
AcDbSpline
 70
8
 71
3
 72
8
 73
4
 74
0
 40
0
 40
0
 40
0
 40
0
 40
1
 40
1
 40
1
 40
1
 10
265.412900
 20
254.000000
 30
0.0
 10
265.412900
 20
239.194910
 30
0.0
 10
277.607810
 20
227.000000
 30
0.0
 10
292.412900
 20
227.000000
 30
0.0
  0
SPLINE
  5
150
100
AcDbEntity
  8
0
 62
7
100
AcDbSpline
 70
8
 71
3
 72
8
 73
4
 74
0
 40
0
 40
0
 40
0
 40
0
 40
1
 40
1
 40
1
 40
1
 10
292.412900
 20
227.000000
 30
0.0
 10
307.217990
 20
227.000000
 30
0.0
 10
319.412900
 20
239.194910
 30
0.0
 10
319.412900
 20
254.000000
 30
0.0
  0
SPLINE
  5
151
100
AcDbEntity
  8
0
 62
7
100
AcDbSpline
 70
8
 71
3
 72
8
 73
4
 74
0
 40
0
 40
0
 40
0
 40
0
 40
1
 40
1
 40
1
 40
1
 10
319.412900
 20
254.000000
 30
0.0
 10
319.412900
 20
268.805090
 30
0.0
 10
307.217990
 20
281.000000
 30
0.0
 10
292.412900
 20
281.000000
 30
0.0
  0
LWPOLYLINE
  5
152
100
AcDbEntity
  8
0
 62
7
100
AcDbPolyline
 90
1
 70
1
 10
310.412900
 20
254.000000
 30
0.0
  0
SPLINE
  5
153
100
AcDbEntity
  8
0
 62
7
100
AcDbSpline
 70
8
 71
3
 72
8
 73
4
 74
0
 40
0
 40
0
 40
0
 40
0
 40
1
 40
1
 40
1
 40
1
 10
292.412900
 20
263.000000
 30
0.0
 10
297.490060
 20
263.000000
 30
0.0
 10
301.412900
 20
259.077160
 30
0.0
 10
301.412900
 20
254.000000
 30
0.0
  0
SPLINE
  5
154
100
AcDbEntity
  8
0
 62
7
100
AcDbSpline
 70
8
 71
3
 72
8
 73
4
 74
0
 40
0
 40
0
 40
0
 40
0
 40
1
 40
1
 40
1
 40
1
 10
301.412900
 20
254.000000
 30
0.0
 10
301.412900
 20
248.922840
 30
0.0
 10
297.490060
 20
245.000000
 30
0.0
 10
292.412900
 20
245.000000
 30
0.0
  0
SPLINE
  5
155
100
AcDbEntity
  8
0
 62
7
100
AcDbSpline
 70
8
 71
3
 72
8
 73
4
 74
0
 40
0
 40
0
 40
0
 40
0
 40
1
 40
1
 40
1
 40
1
 10
292.412900
 20
245.000000
 30
0.0
 10
287.335740
 20
245.000000
 30
0.0
 10
283.412900
 20
248.922840
 30
0.0
 10
283.412900
 20
254.000000
 30
0.0
  0
SPLINE
  5
156
100
AcDbEntity
  8
0
 62
7
100
AcDbSpline
 70
8
 71
3
 72
8
 73
4
 74
0
 40
0
 40
0
 40
0
 40
0
 40
1
 40
1
 40
1
 40
1
 10
283.412900
 20
254.000000
 30
0.0
 10
283.412900
 20
259.077160
 30
0.0
 10
287.335740
 20
263.000000
 30
0.0
 10
292.412900
 20
263.000000
 30
0.0
  0
LWPOLYLINE
  5
157
100
AcDbEntity
  8
0
 62
7
100
AcDbPolyline
 90
1
 70
1
 10
292.412900
 20
281.000000
 30
0.0
  0
LWPOLYLINE
  5
158
100
AcDbEntity
  8
0
 62
7
100
AcDbPolyline
 90
1
 70
1
 10
292.412900
 20
263.000000
 30
0.0
  0
ENDSEC
  0
SECTION
  2
OBJECTS
  0
DICTIONARY
  5
C
330
0
100
AcDbDictionary
  3
ACAD_GROUP
350
D
  3
ACAD_MLINESTYLE
350
17
  0
DICTIONARY
  5
D
330
C
100
AcDbDictionary
  0
DICTIONARY
  5
1A
330
C
100
AcDbDictionary
  0
DICTIONARY
  5
17
330
C
100
AcDbDictionary
  3
STANDARD
350
18
  0
DICTIONARY
  5
19
330
C
100
AcDbDictionary
  0
ENDSEC
  0
EOF
