<?xml version="1.0" encoding="UTF-8" standalone="no"?>
<svg
   viewBox="0 0 512 512"
   role="img"
   aria-label="Camper automation logo variant 3"
   version="1.1"
   id="svg5"
   sodipodi:docname="logo-03-circle-emoji2.svg"
   inkscape:version="1.4.4 (dcaf3e7, 2026-05-05)"
   xmlns:inkscape="http://www.inkscape.org/namespaces/inkscape"
   xmlns:sodipodi="http://sodipodi.sourceforge.net/DTD/sodipodi-0.dtd"
   xmlns="http://www.w3.org/2000/svg"
   xmlns:svg="http://www.w3.org/2000/svg">
  <defs
     id="defs5" />
  <sodipodi:namedview
     id="namedview5"
     pagecolor="#ffffff"
     bordercolor="#000000"
     borderopacity="0.25"
     inkscape:showpageshadow="2"
     inkscape:pageopacity="0.0"
     inkscape:pagecheckerboard="0"
     inkscape:deskcolor="#d1d1d1"
     inkscape:zoom="1.2491241"
     inkscape:cx="264.5854"
     inkscape:cy="271.39017"
     inkscape:current-layer="g4" />
  <path
     id="circle1-7"
     style="fill:#0b1f33"
     d="M 411,226 A 155,155 0 0 1 256,381 155,155 0 0 1 101,226 155,155 0 0 1 256,71 155,155 0 0 1 411,226 Z" />
  <path
     id="circle1"
     style="fill:#1e8e5a"
     d="M 388,226 A 132,132 0 0 1 256,358 132,132 0 0 1 124,226 132,132 0 0 1 256,94 132,132 0 0 1 388,226 Z" />
  <g
     fill="none"
     stroke="#0B1F33"
     stroke-width="18"
     stroke-linecap="round"
     stroke-linejoin="round"
     id="g4">
    <path
       style="baseline-shift:baseline;display:inline;overflow:visible;vector-effect:none;fill:#0b1f33;stroke:none;stroke-linecap:butt;stroke-linejoin:miter;enable-background:accumulate;stop-color:#000000;stop-opacity:1;opacity:1"
       d="m 150,249 a 9,9 0 0 0 -9,9 9,9 0 0 0 9,9 h 212 a 9,9 0 0 0 9,-9 9,9 0 0 0 -9,-9 z"
       id="path2" />
    <path
       style="baseline-shift:baseline;display:inline;overflow:visible;vector-effect:none;fill:#0b1f33;stroke:none;stroke-linecap:butt;stroke-linejoin:miter;enable-background:accumulate;stop-color:#000000;stop-opacity:1;opacity:1"
       d="m 289.57617,143.00977 a 9.0009,9.0009 0 0 0 -6.50976,3.25195 l -41.69532,50.38281 -31.00781,-31.00781 a 9.0009,9.0009 0 0 0 -12.72656,0 l -42,42 a 9,9 0 0 0 0,12.72656 9,9 0 0 0 12.72656,0 L 204,184.72656 l 31.63672,31.63672 a 9.0009,9.0009 0 0 0 13.29687,-0.625 l 41.69532,-50.38281 47.00781,47.00781 a 9,9 0 0 0 12.72656,0 9,9 0 0 0 0,-12.72656 l -54,-54 a 9.0009,9.0009 0 0 0 -6.78711,-2.62695 z"
       id="path3" />
    <g
       fill="#f4a300"
       id="g6"
       transform="translate(-44.418512,-92)">
      <g
         id="circle6"
         style="opacity:1">
        <path
           style="baseline-shift:baseline;display:inline;overflow:visible;vector-effect:none;stroke:none;stroke-linecap:butt;stroke-linejoin:miter;enable-background:accumulate;stop-color:#000000;stop-opacity:1"
           d="m 274,350 a 18,18 0 0 1 -18,18 18,18 0 0 1 -18,-18 18,18 0 0 1 18,-18 18,18 0 0 1 18,18 z"
           id="path1" />
        <path
           style="baseline-shift:baseline;display:inline;overflow:visible;vector-effect:none;fill:#0b1f33;stroke:none;stroke-linecap:butt;stroke-linejoin:miter;enable-background:accumulate;stop-color:#000000;stop-opacity:1"
           d="m 256,323 c -14.80509,0 -27,12.19491 -27,27 0,14.80509 12.19491,27 27,27 14.80509,0 27,-12.19491 27,-27 0,-14.80509 -12.19491,-27 -27,-27 z m 0,18 c 5.07716,0 9,3.92284 9,9 0,5.07716 -3.92284,9 -9,9 -5.07716,0 -9,-3.92284 -9,-9 0,-5.07716 3.92284,-9 9,-9 z"
           id="path5" />
      </g>
    </g>
    <g
       fill="#f4a300"
       id="g6-5"
       transform="translate(36.412902,-92)">
      <g
         id="circle6-8"
         style="opacity:1">
        <path
           style="baseline-shift:baseline;display:inline;overflow:visible;vector-effect:none;stroke:none;stroke-linecap:butt;stroke-linejoin:miter;enable-background:accumulate;stop-color:#000000;stop-opacity:1"
           d="m 274,350 a 18,18 0 0 1 -18,18 18,18 0 0 1 -18,-18 18,18 0 0 1 18,-18 18,18 0 0 1 18,18 z"
           id="path6" />
        <path
           style="baseline-shift:baseline;display:inline;overflow:visible;vector-effect:none;fill:#0b1f33;stroke:none;stroke-linecap:butt;stroke-linejoin:miter;enable-background:accumulate;stop-color:#000000;stop-opacity:1"
           d="m 256,323 c -14.80509,0 -27,12.19491 -27,27 0,14.80509 12.19491,27 27,27 14.80509,0 27,-12.19491 27,-27 0,-14.80509 -12.19491,-27 -27,-27 z m 0,18 c 5.07716,0 9,3.92284 9,9 0,5.07716 -3.92284,9 -9,9 -5.07716,0 -9,-3.92284 -9,-9 0,-5.07716 3.92284,-9 9,-9 z"
           id="path7" />
      </g>
    </g>
  </g>
</svg>
